<svg width="396" height="16" viewBox="0 0 396 16" fill="none" xmlns="http://www.w3.org/2000/svg">
<rect width="380" height="4" transform="matrix(1 0 0 -1 8 16)" fill="#902F00"/>
<rect width="4" height="8" transform="matrix(1 0 0 -1 0 8)" fill="#902F00"/>
<rect x="396" y="7" width="4" height="7" transform="rotate(-180 396 7)" fill="#902F00"/>
<rect width="8" height="4" transform="matrix(1 0 0 -1 4 4)" fill="#E27A39"/>
<rect x="392" y="4" width="8" height="4" transform="rotate(-180 392 4)" fill="#E27A39"/>
<rect width="372" height="8" transform="matrix(1 0 0 -1 12 12)" fill="#E27A39"/>
<rect width="8" height="8" transform="matrix(1 0 0 -1 4 12)" fill="#BF4600"/>
<rect x="392" y="12" width="8" height="8" transform="rotate(-180 392 12)" fill="#BF4600"/>
<rect width="372" height="4" transform="matrix(1 0 0 -1 12 4)" fill="#BF4600"/>
</svg>
