<svg width="412" height="917" viewBox="0 0 412 917" fill="none" xmlns="http://www.w3.org/2000/svg">
<g clip-path="url(#clip0_143_2368)">
<rect width="412" height="917" fill="url(#paint0_linear_143_2368)"/>
<path fill-rule="evenodd" clip-rule="evenodd" d="M56 64H32V72H24V80H16V88V96H8V88H-8V96H-16V104V112V120H-8V112H0V104H24V96V88H40V80H48V88H56V96H64V104H80V96H96V104H104V96H96V88H80V96H72V88V80H64V72H56V64Z" fill="#F1FAFF"/>
<path fill-rule="evenodd" clip-rule="evenodd" d="M48 80H40V88H24V96V104H0V112H-8V120H128V112H144V104H128V96H112V104H96V96H80V104H64V96H56V88H48V80Z" fill="#D7EDFC"/>
<path fill-rule="evenodd" clip-rule="evenodd" d="M-24 112H-16V120H128V112H152V120H160V128H-32V120H-24V112Z" fill="#B0DEF6"/>
<path fill-rule="evenodd" clip-rule="evenodd" d="M320 384H296V392H288V400H280V408V416H272V408H256V416H248V424V432V440H256V432H264V424H288V416V408H304V400H312V408H320V416H328V424H344V416H360V424H368V416H360V408H344V416H336V408V400H328V392H320V384Z" fill="#F1FAFF"/>
<path fill-rule="evenodd" clip-rule="evenodd" d="M312 400H304V408H288V416V424H264V432H256V440H392V432H408V424H392V416H376V424H360V416H344V424H328V416H320V408H312V400Z" fill="#D7EDFC"/>
<path fill-rule="evenodd" clip-rule="evenodd" d="M240 432H248V440H392V432H416V440H424V448H232V440H240V432Z" fill="#B0DEF6"/>
<path fill-rule="evenodd" clip-rule="evenodd" d="M72 352H64V360V368H72V376H184V368H176V360H160V368H152V360H120V368H80V360H72V352Z" fill="#B0DEF6"/>
<path fill-rule="evenodd" clip-rule="evenodd" d="M136 344H112V352H72V360H80V368H120V360H144V352H136V344ZM152 352H168V360H160V368H152V360V352Z" fill="#D7EDFC"/>
<path fill-rule="evenodd" clip-rule="evenodd" d="M128 328H112V336H104V344H80V352H112V344H136V352H144V360H152V352H168V360H176V368H184V360H176V352H168V344H152V352H144V344H136V336H128V328Z" fill="#F1FAFF"/>
<path fill-rule="evenodd" clip-rule="evenodd" d="M-48 464H-56V472V480H-48V488H64V480H56V472H40V480H32V472H0V480H-40V472H-48V464Z" fill="#B0DEF6"/>
<path fill-rule="evenodd" clip-rule="evenodd" d="M16 456H-8V464H-48V472H-40V480H0V472H24V464H16V456ZM32 464H48V472H40V480H32V472V464Z" fill="#D7EDFC"/>
<path fill-rule="evenodd" clip-rule="evenodd" d="M8 440H-8V448H-16V456H-40V464H-8V456H16V464H24V472H32V464H48V472H56V480H64V472H56V464H48V456H32V464H24V456H16V448H8V440Z" fill="#F1FAFF"/>
<path fill-rule="evenodd" clip-rule="evenodd" d="M386 88H410V96H418V88H426V96H434V104H370V96H386V88Z" fill="#B0DEF6"/>
<path fill-rule="evenodd" clip-rule="evenodd" d="M402 80H418V88V96H410V88H402V80ZM386 88H378V96H386V88Z" fill="#D7EDFC"/>
<path fill-rule="evenodd" clip-rule="evenodd" d="M418 72H402V80H394V88H402V80H418V88H426V96H434V88H426V80H418V72Z" fill="#F1FAFF"/>
<path fill-rule="evenodd" clip-rule="evenodd" d="M260 152H236V160H228V168H220V176V184H212V176H196V184H188V192V200V208H196V200H204V192H228V184V176H244V168H252V176H260V184H268V192H284V184H300V192H308V184H300V176H284V184H276V176V168H268V160H260V152Z" fill="#F1FAFF"/>
<path fill-rule="evenodd" clip-rule="evenodd" d="M252 168H244V176H228V184V192H204V200H196V208H332V200H348V192H332V184H316V192H300V184H284V192H268V184H260V176H252V168Z" fill="#D7EDFC"/>
<path fill-rule="evenodd" clip-rule="evenodd" d="M180 200H188V208H332V200H356V208H364V216H172V208H180V200Z" fill="#B0DEF6"/>
<path fill-rule="evenodd" clip-rule="evenodd" d="M326 536H350V544H358V536H366V544H374V552H310V544H326V536Z" fill="#B0DEF6"/>
<path fill-rule="evenodd" clip-rule="evenodd" d="M342 528H358V536V544H350V536H342V528ZM326 536H318V544H326V536Z" fill="#D7EDFC"/>
<path fill-rule="evenodd" clip-rule="evenodd" d="M358 520H342V528H334V536H342V528H358V536H366V544H374V536H366V528H358V520Z" fill="#F1FAFF"/>
<rect x="20" y="841" width="8" height="40" fill="#A3CB43"/>
<rect x="24" y="837" width="4" height="4" fill="#A3CB43"/>
<rect x="24" y="881" width="4" height="4" fill="#4E661C"/>
<rect x="24" y="885" width="4" height="4" fill="#4E661C"/>
<rect x="24" y="889" width="4" height="4" fill="#4E661C"/>
<rect x="20" y="881" width="4" height="12" fill="#6E9029"/>
<rect x="16" y="881" width="4" height="12" fill="#8FBB33"/>
<rect x="24" y="893" width="4" height="24" fill="#59492E"/>
<rect x="20" y="893" width="4" height="24" fill="#836C44"/>
<rect x="16" y="893" width="4" height="24" fill="#836C44"/>
<rect x="28" y="885" width="4" height="4" fill="#4E661C"/>
<rect x="28" y="889" width="4" height="4" fill="#4E661C"/>
<rect x="28" y="893" width="4" height="4" fill="#4E661C"/>
<rect x="28" y="897" width="4" height="20" fill="#59492E"/>
<rect x="32" y="889" width="4" height="4" fill="#4E661C"/>
<rect x="32" y="893" width="4" height="4" fill="#4E661C"/>
<rect x="32" y="897" width="4" height="4" fill="#4E661C"/>
<rect x="32" y="901" width="4" height="16" fill="#59492E"/>
<rect x="36" y="893" width="4" height="4" fill="#4E661C"/>
<rect x="36" y="897" width="4" height="4" fill="#4E661C"/>
<rect x="36" y="901" width="4" height="4" fill="#4E661C"/>
<rect x="36" y="905" width="4" height="12" fill="#59492E"/>
<rect x="40" y="897" width="4" height="4" fill="#4E661C"/>
<rect x="40" y="901" width="4" height="4" fill="#4E661C"/>
<rect x="40" y="905" width="4" height="4" fill="#4E661C"/>
<rect x="40" y="909" width="4" height="8" fill="#59492E"/>
<rect x="44" y="901" width="4" height="4" fill="#4E661C"/>
<rect x="44" y="905" width="4" height="4" fill="#4E661C"/>
<rect x="44" y="909" width="4" height="4" fill="#4E661C"/>
<rect x="44" y="913" width="4" height="4" fill="#59492E"/>
<rect x="48" y="905" width="4" height="4" fill="#4E661C"/>
<rect x="48" y="909" width="4" height="4" fill="#4E661C"/>
<rect x="48" y="913" width="4" height="4" fill="#4E661C"/>
<rect x="52" y="909" width="4" height="4" fill="#4E661C"/>
<rect x="52" y="913" width="4" height="4" fill="#4E661C"/>
<rect x="56" y="913" width="4" height="4" fill="#4E661C"/>
<rect x="28" y="833" width="16" height="52" fill="#A3CB43"/>
<rect x="44" y="825" width="4" height="76" fill="#A3CB43"/>
<rect x="44" y="821" width="4" height="4" fill="#A3CB43"/>
<rect x="48" y="817" width="4" height="88" fill="#A3CB43"/>
<rect x="32" y="885" width="12" height="4" fill="#A3CB43"/>
<rect x="36" y="889" width="8" height="4" fill="#A3CB43"/>
<rect x="40" y="893" width="4" height="4" fill="#A3CB43"/>
<rect x="40" y="821" width="4" height="12" fill="#C3D868"/>
<rect x="44" y="817" width="4" height="4" fill="#C3D868"/>
<rect x="28" y="829" width="12" height="4" fill="#C3D868"/>
<rect x="24" y="833" width="4" height="4" fill="#C3D868"/>
<rect x="20" y="837" width="4" height="4" fill="#C3D868"/>
<rect x="16" y="841" width="4" height="40" fill="#C3D868"/>
<rect x="48" y="813" width="4" height="4" fill="#C3D868"/>
<rect x="52" y="809" width="4" height="4" fill="#C3D868"/>
<rect x="56" y="805" width="4" height="4" fill="#C3D868"/>
<rect x="60" y="801" width="4" height="4" fill="#C3D868"/>
<rect x="64" y="797" width="4" height="4" fill="#C3D868"/>
<rect x="68" y="793" width="4" height="4" fill="#C3D868"/>
<rect x="72" y="789" width="4" height="4" fill="#C3D868"/>
<rect x="76" y="785" width="4" height="4" fill="#C3D868"/>
<rect x="80" y="781" width="4" height="4" fill="#C3D868"/>
<rect x="84" y="777" width="4" height="4" fill="#C3D868"/>
<rect x="88" y="773" width="4" height="4" fill="#C3D868"/>
<rect x="92" y="769" width="4" height="4" fill="#C3D868"/>
<rect x="96" y="765" width="4" height="4" fill="#C3D868"/>
<rect x="100" y="761" width="4" height="4" fill="#C3D868"/>
<rect x="104" y="757" width="4" height="4" fill="#C3D868"/>
<rect x="108" y="753" width="4" height="4" fill="#C3D868"/>
<rect x="280" y="753" width="8" height="4" fill="#C3D868"/>
<rect x="288" y="757" width="4" height="4" fill="#C3D868"/>
<rect x="116" y="749" width="164" height="4" fill="#C3D868"/>
<rect x="292" y="761" width="4" height="4" fill="#C3D868"/>
<rect x="296" y="765" width="4" height="4" fill="#C3D868"/>
<rect x="300" y="769" width="4" height="4" fill="#C3D868"/>
<rect x="304" y="773" width="4" height="4" fill="#C3D868"/>
<rect x="308" y="777" width="4" height="4" fill="#C3D868"/>
<rect x="312" y="781" width="4" height="4" fill="#C3D868"/>
<rect x="316" y="785" width="4" height="4" fill="#C3D868"/>
<rect x="320" y="789" width="4" height="4" fill="#C3D868"/>
<rect x="324" y="793" width="4" height="4" fill="#C3D868"/>
<rect x="328" y="797" width="4" height="4" fill="#C3D868"/>
<rect x="332" y="801" width="4" height="4" fill="#C3D868"/>
<rect x="336" y="805" width="20" height="4" fill="#C3D868"/>
<rect x="356" y="809" width="4" height="4" fill="#C3D868"/>
<rect x="360" y="813" width="4" height="4" fill="#C3D868"/>
<rect x="364" y="817" width="4" height="40" fill="#C3D868"/>
<rect x="368" y="857" width="4" height="4" fill="#C3D868"/>
<rect x="372" y="861" width="4" height="4" fill="#C3D868"/>
<rect x="376" y="865" width="4" height="4" fill="#C3D868"/>
<rect x="380" y="869" width="4" height="4" fill="#C3D868"/>
<rect x="384" y="873" width="4" height="4" fill="#C3D868"/>
<rect x="388" y="877" width="4" height="4" fill="#C3D868"/>
<rect x="392" y="881" width="4" height="4" fill="#C3D868"/>
<rect x="112" y="749" width="4" height="4" fill="#C3D868"/>
<rect x="52" y="813" width="4" height="96" fill="#A3CB43"/>
<rect x="56" y="809" width="4" height="104" fill="#A3CB43"/>
<rect x="60" y="805" width="48" height="112" fill="#A3CB43"/>
<rect x="64" y="801" width="44" height="4" fill="#A3CB43"/>
<rect x="68" y="797" width="40" height="4" fill="#A3CB43"/>
<rect x="72" y="793" width="36" height="4" fill="#A3CB43"/>
<rect x="76" y="789" width="32" height="4" fill="#A3CB43"/>
<rect x="80" y="785" width="28" height="4" fill="#A3CB43"/>
<rect x="84" y="781" width="24" height="4" fill="#A3CB43"/>
<rect x="88" y="777" width="20" height="4" fill="#A3CB43"/>
<rect x="92" y="773" width="16" height="4" fill="#A3CB43"/>
<rect x="96" y="769" width="12" height="4" fill="#A3CB43"/>
<rect x="100" y="765" width="8" height="4" fill="#A3CB43"/>
<rect x="104" y="761" width="4" height="4" fill="#A3CB43"/>
<rect x="108" y="757" width="172" height="160" fill="#A3CB43"/>
<rect x="112" y="753" width="168" height="4" fill="#A3CB43"/>
<rect x="280" y="757" width="8" height="160" fill="#A3CB43"/>
<rect x="288" y="761" width="4" height="156" fill="#A3CB43"/>
<rect x="292" y="765" width="4" height="152" fill="#A3CB43"/>
<rect x="296" y="769" width="4" height="148" fill="#A3CB43"/>
<rect x="300" y="773" width="4" height="144" fill="#A3CB43"/>
<rect x="304" y="777" width="4" height="4" fill="#A3CB43"/>
<rect x="304" y="781" width="8" height="4" fill="#A3CB43"/>
<rect x="304" y="785" width="12" height="4" fill="#A3CB43"/>
<rect x="304" y="789" width="16" height="4" fill="#A3CB43"/>
<rect x="304" y="793" width="20" height="4" fill="#A3CB43"/>
<rect x="304" y="797" width="24" height="4" fill="#A3CB43"/>
<rect x="304" y="801" width="28" height="4" fill="#A3CB43"/>
<rect x="304" y="805" width="32" height="4" fill="#A3CB43"/>
<rect x="304" y="817" width="60" height="36" fill="#A3CB43"/>
<rect x="356" y="813" width="4" height="4" fill="#A3CB43"/>
<rect x="304" y="853" width="60" height="64" fill="#A3CB43"/>
<rect x="364" y="857" width="4" height="60" fill="#A3CB43"/>
<rect x="368" y="861" width="4" height="56" fill="#A3CB43"/>
<rect x="372" y="865" width="4" height="52" fill="#A3CB43"/>
<rect x="376" y="869" width="4" height="48" fill="#A3CB43"/>
<rect x="380" y="873" width="4" height="44" fill="#A3CB43"/>
<rect x="384" y="877" width="4" height="40" fill="#A3CB43"/>
<rect x="388" y="881" width="4" height="36" fill="#A3CB43"/>
<rect x="392" y="885" width="4" height="32" fill="#A3CB43"/>
<rect x="304" y="809" width="52" height="8" fill="#A3CB43"/>
<rect x="20" y="841" width="8" height="40" fill="#A3CB43"/>
<rect x="24" y="837" width="4" height="4" fill="#A3CB43"/>
<rect x="24" y="881" width="4" height="4" fill="#4E661C"/>
<rect x="24" y="885" width="4" height="4" fill="#4E661C"/>
<rect x="24" y="889" width="4" height="4" fill="#4E661C"/>
<rect x="20" y="881" width="4" height="12" fill="#6E9029"/>
<rect x="16" y="881" width="4" height="12" fill="#8FBB33"/>
<rect x="24" y="893" width="4" height="24" fill="#59492E"/>
<rect x="20" y="893" width="4" height="24" fill="#836C44"/>
<rect x="16" y="893" width="4" height="24" fill="#836C44"/>
<rect x="28" y="885" width="4" height="4" fill="#4E661C"/>
<rect x="28" y="889" width="4" height="4" fill="#4E661C"/>
<rect x="28" y="893" width="4" height="4" fill="#4E661C"/>
<rect x="28" y="897" width="4" height="20" fill="#59492E"/>
<rect x="32" y="889" width="4" height="4" fill="#4E661C"/>
<rect x="32" y="893" width="4" height="4" fill="#4E661C"/>
<rect x="32" y="897" width="4" height="4" fill="#4E661C"/>
<rect x="32" y="901" width="4" height="16" fill="#59492E"/>
<rect x="36" y="893" width="4" height="4" fill="#4E661C"/>
<rect x="36" y="897" width="4" height="4" fill="#4E661C"/>
<rect x="36" y="901" width="4" height="4" fill="#4E661C"/>
<rect x="36" y="905" width="4" height="12" fill="#59492E"/>
<rect x="40" y="897" width="4" height="4" fill="#4E661C"/>
<rect x="40" y="901" width="4" height="4" fill="#4E661C"/>
<rect x="40" y="905" width="4" height="4" fill="#4E661C"/>
<rect x="40" y="909" width="4" height="8" fill="#59492E"/>
<rect x="44" y="901" width="4" height="4" fill="#4E661C"/>
<rect x="44" y="905" width="4" height="4" fill="#4E661C"/>
<rect x="44" y="909" width="4" height="4" fill="#4E661C"/>
<rect x="44" y="913" width="4" height="4" fill="#59492E"/>
<rect x="48" y="905" width="4" height="4" fill="#4E661C"/>
<rect x="48" y="909" width="4" height="4" fill="#4E661C"/>
<rect x="48" y="913" width="4" height="4" fill="#4E661C"/>
<rect x="52" y="909" width="4" height="4" fill="#4E661C"/>
<rect x="52" y="913" width="4" height="4" fill="#4E661C"/>
<rect x="56" y="913" width="4" height="4" fill="#4E661C"/>
<rect x="28" y="833" width="16" height="52" fill="#A3CB43"/>
<rect x="44" y="825" width="4" height="76" fill="#A3CB43"/>
<rect x="44" y="821" width="4" height="4" fill="#A3CB43"/>
<rect x="48" y="817" width="4" height="88" fill="#A3CB43"/>
<rect x="32" y="885" width="12" height="4" fill="#A3CB43"/>
<rect x="36" y="889" width="8" height="4" fill="#A3CB43"/>
<rect x="40" y="893" width="4" height="4" fill="#A3CB43"/>
<rect x="40" y="821" width="4" height="12" fill="#C3D868"/>
<rect x="44" y="817" width="4" height="4" fill="#C3D868"/>
<rect x="28" y="829" width="12" height="4" fill="#C3D868"/>
<rect x="24" y="833" width="4" height="4" fill="#C3D868"/>
<rect x="20" y="837" width="4" height="4" fill="#C3D868"/>
<rect x="16" y="841" width="4" height="40" fill="#C3D868"/>
<rect x="48" y="813" width="4" height="4" fill="#C3D868"/>
<rect x="52" y="809" width="4" height="4" fill="#C3D868"/>
<rect x="56" y="805" width="4" height="4" fill="#C3D868"/>
<rect x="60" y="801" width="4" height="4" fill="#C3D868"/>
<rect x="64" y="797" width="4" height="4" fill="#C3D868"/>
<rect x="68" y="793" width="4" height="4" fill="#C3D868"/>
<rect x="72" y="789" width="4" height="4" fill="#C3D868"/>
<rect x="76" y="785" width="4" height="4" fill="#C3D868"/>
<rect x="80" y="781" width="4" height="4" fill="#C3D868"/>
<rect x="84" y="777" width="4" height="4" fill="#C3D868"/>
<rect x="88" y="773" width="4" height="4" fill="#C3D868"/>
<rect x="92" y="769" width="4" height="4" fill="#C3D868"/>
<rect x="96" y="765" width="4" height="4" fill="#C3D868"/>
<rect x="100" y="761" width="4" height="4" fill="#C3D868"/>
<rect x="104" y="757" width="4" height="4" fill="#C3D868"/>
<rect x="108" y="753" width="4" height="4" fill="#C3D868"/>
<rect x="280" y="753" width="8" height="4" fill="#C3D868"/>
<rect x="288" y="757" width="4" height="4" fill="#C3D868"/>
<rect x="116" y="749" width="164" height="4" fill="#C3D868"/>
<rect x="292" y="761" width="4" height="4" fill="#C3D868"/>
<rect x="296" y="765" width="4" height="4" fill="#C3D868"/>
<rect x="300" y="769" width="4" height="4" fill="#C3D868"/>
<rect x="304" y="773" width="4" height="4" fill="#C3D868"/>
<rect x="308" y="777" width="4" height="4" fill="#C3D868"/>
<rect x="312" y="781" width="4" height="4" fill="#C3D868"/>
<rect x="316" y="785" width="4" height="4" fill="#C3D868"/>
<rect x="320" y="789" width="4" height="4" fill="#C3D868"/>
<rect x="324" y="793" width="4" height="4" fill="#C3D868"/>
<rect x="328" y="797" width="4" height="4" fill="#C3D868"/>
<rect x="332" y="801" width="4" height="4" fill="#C3D868"/>
<rect x="336" y="805" width="20" height="4" fill="#C3D868"/>
<rect x="356" y="809" width="4" height="4" fill="#C3D868"/>
<rect x="360" y="813" width="4" height="4" fill="#C3D868"/>
<rect x="364" y="817" width="4" height="40" fill="#C3D868"/>
<rect x="368" y="857" width="4" height="4" fill="#C3D868"/>
<rect x="372" y="861" width="4" height="4" fill="#C3D868"/>
<rect x="376" y="865" width="4" height="4" fill="#C3D868"/>
<rect x="380" y="869" width="4" height="4" fill="#C3D868"/>
<rect x="384" y="873" width="4" height="4" fill="#C3D868"/>
<rect x="388" y="877" width="4" height="4" fill="#C3D868"/>
<rect x="392" y="881" width="4" height="4" fill="#C3D868"/>
<rect x="112" y="749" width="4" height="4" fill="#C3D868"/>
<rect x="52" y="813" width="4" height="96" fill="#A3CB43"/>
<rect x="56" y="809" width="4" height="104" fill="#A3CB43"/>
<rect x="60" y="805" width="48" height="112" fill="#A3CB43"/>
<rect x="64" y="801" width="44" height="4" fill="#A3CB43"/>
<rect x="68" y="797" width="40" height="4" fill="#A3CB43"/>
<rect x="72" y="793" width="36" height="4" fill="#A3CB43"/>
<rect x="76" y="789" width="32" height="4" fill="#A3CB43"/>
<rect x="80" y="785" width="28" height="4" fill="#A3CB43"/>
<rect x="84" y="781" width="24" height="4" fill="#A3CB43"/>
<rect x="88" y="777" width="20" height="4" fill="#A3CB43"/>
<rect x="92" y="773" width="16" height="4" fill="#A3CB43"/>
<rect x="96" y="769" width="12" height="4" fill="#A3CB43"/>
<rect x="100" y="765" width="8" height="4" fill="#A3CB43"/>
<rect x="104" y="761" width="4" height="4" fill="#A3CB43"/>
<rect x="108" y="757" width="172" height="160" fill="#A3CB43"/>
<rect x="112" y="753" width="168" height="4" fill="#A3CB43"/>
<rect x="280" y="757" width="8" height="160" fill="#A3CB43"/>
<rect x="288" y="761" width="4" height="156" fill="#A3CB43"/>
<rect x="292" y="765" width="4" height="152" fill="#A3CB43"/>
<rect x="296" y="769" width="4" height="148" fill="#A3CB43"/>
<rect x="300" y="773" width="4" height="144" fill="#A3CB43"/>
<rect x="304" y="777" width="4" height="4" fill="#A3CB43"/>
<rect x="304" y="781" width="8" height="4" fill="#A3CB43"/>
<rect x="304" y="785" width="12" height="4" fill="#A3CB43"/>
<rect x="304" y="789" width="16" height="4" fill="#A3CB43"/>
<rect x="304" y="793" width="20" height="4" fill="#A3CB43"/>
<rect x="304" y="797" width="24" height="4" fill="#A3CB43"/>
<rect x="304" y="801" width="28" height="4" fill="#A3CB43"/>
<rect x="304" y="805" width="32" height="4" fill="#A3CB43"/>
<rect x="304" y="817" width="60" height="36" fill="#A3CB43"/>
<rect x="356" y="813" width="4" height="4" fill="#A3CB43"/>
<rect x="304" y="853" width="60" height="64" fill="#A3CB43"/>
<rect x="364" y="857" width="4" height="60" fill="#A3CB43"/>
<rect x="368" y="861" width="4" height="56" fill="#A3CB43"/>
<rect x="372" y="865" width="4" height="52" fill="#A3CB43"/>
<rect x="376" y="869" width="4" height="48" fill="#A3CB43"/>
<rect x="380" y="873" width="4" height="44" fill="#A3CB43"/>
<rect x="384" y="877" width="4" height="40" fill="#A3CB43"/>
<rect x="388" y="881" width="4" height="36" fill="#A3CB43"/>
<rect x="392" y="885" width="4" height="32" fill="#A3CB43"/>
<rect x="304" y="809" width="52" height="8" fill="#A3CB43"/>
<rect x="20" y="841" width="8" height="40" fill="#A3CB43"/>
<rect x="24" y="837" width="4" height="4" fill="#A3CB43"/>
<rect x="24" y="881" width="4" height="4" fill="#4E661C"/>
<rect x="24" y="885" width="4" height="4" fill="#4E661C"/>
<rect x="24" y="889" width="4" height="4" fill="#4E661C"/>
<rect x="20" y="881" width="4" height="12" fill="#6E9029"/>
<rect x="16" y="881" width="4" height="12" fill="#8FBB33"/>
<rect x="24" y="893" width="4" height="24" fill="#59492E"/>
<rect x="20" y="893" width="4" height="24" fill="#836C44"/>
<rect x="16" y="893" width="4" height="24" fill="#836C44"/>
<rect x="28" y="885" width="4" height="4" fill="#4E661C"/>
<rect x="28" y="889" width="4" height="4" fill="#4E661C"/>
<rect x="28" y="893" width="4" height="4" fill="#4E661C"/>
<rect x="28" y="897" width="4" height="20" fill="#59492E"/>
<rect x="32" y="889" width="4" height="4" fill="#4E661C"/>
<rect x="32" y="893" width="4" height="4" fill="#4E661C"/>
<rect x="32" y="897" width="4" height="4" fill="#4E661C"/>
<rect x="32" y="901" width="4" height="16" fill="#59492E"/>
<rect x="36" y="893" width="4" height="4" fill="#4E661C"/>
<rect x="36" y="897" width="4" height="4" fill="#4E661C"/>
<rect x="36" y="901" width="4" height="4" fill="#4E661C"/>
<rect x="36" y="905" width="4" height="12" fill="#59492E"/>
<rect x="40" y="897" width="4" height="4" fill="#4E661C"/>
<rect x="40" y="901" width="4" height="4" fill="#4E661C"/>
<rect x="40" y="905" width="4" height="4" fill="#4E661C"/>
<rect x="40" y="909" width="4" height="8" fill="#59492E"/>
<rect x="44" y="901" width="4" height="4" fill="#4E661C"/>
<rect x="44" y="905" width="4" height="4" fill="#4E661C"/>
<rect x="44" y="909" width="4" height="4" fill="#4E661C"/>
<rect x="44" y="913" width="4" height="4" fill="#59492E"/>
<rect x="48" y="905" width="4" height="4" fill="#4E661C"/>
<rect x="48" y="909" width="4" height="4" fill="#4E661C"/>
<rect x="48" y="913" width="4" height="4" fill="#4E661C"/>
<rect x="52" y="909" width="4" height="4" fill="#4E661C"/>
<rect x="52" y="913" width="4" height="4" fill="#4E661C"/>
<rect x="56" y="913" width="4" height="4" fill="#4E661C"/>
<rect x="28" y="833" width="16" height="52" fill="#A3CB43"/>
<rect x="44" y="825" width="4" height="76" fill="#A3CB43"/>
<rect x="44" y="821" width="4" height="4" fill="#A3CB43"/>
<rect x="48" y="817" width="4" height="88" fill="#A3CB43"/>
<rect x="32" y="885" width="12" height="4" fill="#A3CB43"/>
<rect x="36" y="889" width="8" height="4" fill="#A3CB43"/>
<rect x="40" y="893" width="4" height="4" fill="#A3CB43"/>
<rect x="40" y="821" width="4" height="12" fill="#C3D868"/>
<rect x="44" y="817" width="4" height="4" fill="#C3D868"/>
<rect x="28" y="829" width="12" height="4" fill="#C3D868"/>
<rect x="24" y="833" width="4" height="4" fill="#C3D868"/>
<rect x="20" y="837" width="4" height="4" fill="#C3D868"/>
<rect x="16" y="841" width="4" height="40" fill="#C3D868"/>
<rect x="48" y="813" width="4" height="4" fill="#C3D868"/>
<rect x="52" y="809" width="4" height="4" fill="#C3D868"/>
<rect x="56" y="805" width="4" height="4" fill="#C3D868"/>
<rect x="60" y="801" width="4" height="4" fill="#C3D868"/>
<rect x="64" y="797" width="4" height="4" fill="#C3D868"/>
<rect x="68" y="793" width="4" height="4" fill="#C3D868"/>
<rect x="72" y="789" width="4" height="4" fill="#C3D868"/>
<rect x="76" y="785" width="4" height="4" fill="#C3D868"/>
<rect x="80" y="781" width="4" height="4" fill="#C3D868"/>
<rect x="84" y="777" width="4" height="4" fill="#C3D868"/>
<rect x="88" y="773" width="4" height="4" fill="#C3D868"/>
<rect x="92" y="769" width="4" height="4" fill="#C3D868"/>
<rect x="96" y="765" width="4" height="4" fill="#C3D868"/>
<rect x="100" y="761" width="4" height="4" fill="#C3D868"/>
<rect x="104" y="757" width="4" height="4" fill="#C3D868"/>
<rect x="108" y="753" width="4" height="4" fill="#C3D868"/>
<rect x="280" y="753" width="8" height="4" fill="#C3D868"/>
<rect x="288" y="757" width="4" height="4" fill="#C3D868"/>
<rect x="116" y="749" width="164" height="4" fill="#C3D868"/>
<rect x="292" y="761" width="4" height="4" fill="#C3D868"/>
<rect x="296" y="765" width="4" height="4" fill="#C3D868"/>
<rect x="300" y="769" width="4" height="4" fill="#C3D868"/>
<rect x="304" y="773" width="4" height="4" fill="#C3D868"/>
<rect x="308" y="777" width="4" height="4" fill="#C3D868"/>
<rect x="312" y="781" width="4" height="4" fill="#C3D868"/>
<rect x="316" y="785" width="4" height="4" fill="#C3D868"/>
<rect x="320" y="789" width="4" height="4" fill="#C3D868"/>
<rect x="324" y="793" width="4" height="4" fill="#C3D868"/>
<rect x="328" y="797" width="4" height="4" fill="#C3D868"/>
<rect x="332" y="801" width="4" height="4" fill="#C3D868"/>
<rect x="336" y="805" width="20" height="4" fill="#C3D868"/>
<rect x="356" y="809" width="4" height="4" fill="#C3D868"/>
<rect x="360" y="813" width="4" height="4" fill="#C3D868"/>
<rect x="364" y="817" width="4" height="40" fill="#C3D868"/>
<rect x="368" y="857" width="4" height="4" fill="#C3D868"/>
<rect x="372" y="861" width="4" height="4" fill="#C3D868"/>
<rect x="376" y="865" width="4" height="4" fill="#C3D868"/>
<rect x="380" y="869" width="4" height="4" fill="#C3D868"/>
<rect x="384" y="873" width="4" height="4" fill="#C3D868"/>
<rect x="388" y="877" width="4" height="4" fill="#C3D868"/>
<rect x="392" y="881" width="4" height="4" fill="#C3D868"/>
<rect x="112" y="749" width="4" height="4" fill="#C3D868"/>
<rect x="52" y="813" width="4" height="96" fill="#A3CB43"/>
<rect x="56" y="809" width="4" height="104" fill="#A3CB43"/>
<rect x="60" y="805" width="48" height="112" fill="#A3CB43"/>
<rect x="64" y="801" width="44" height="4" fill="#A3CB43"/>
<rect x="68" y="797" width="40" height="4" fill="#A3CB43"/>
<rect x="72" y="793" width="36" height="4" fill="#A3CB43"/>
<rect x="76" y="789" width="32" height="4" fill="#A3CB43"/>
<rect x="80" y="785" width="28" height="4" fill="#A3CB43"/>
<rect x="84" y="781" width="24" height="4" fill="#A3CB43"/>
<rect x="88" y="777" width="20" height="4" fill="#A3CB43"/>
<rect x="92" y="773" width="16" height="4" fill="#A3CB43"/>
<rect x="96" y="769" width="12" height="4" fill="#A3CB43"/>
<rect x="100" y="765" width="8" height="4" fill="#A3CB43"/>
<rect x="104" y="761" width="4" height="4" fill="#A3CB43"/>
<rect x="108" y="757" width="172" height="160" fill="#A3CB43"/>
<rect x="112" y="753" width="168" height="4" fill="#A3CB43"/>
<rect x="280" y="757" width="8" height="160" fill="#A3CB43"/>
<rect x="288" y="761" width="4" height="156" fill="#A3CB43"/>
<rect x="292" y="765" width="4" height="152" fill="#A3CB43"/>
<rect x="296" y="769" width="4" height="148" fill="#A3CB43"/>
<rect x="300" y="773" width="4" height="144" fill="#A3CB43"/>
<rect x="304" y="777" width="4" height="4" fill="#A3CB43"/>
<rect x="304" y="781" width="8" height="4" fill="#A3CB43"/>
<rect x="304" y="785" width="12" height="4" fill="#A3CB43"/>
<rect x="304" y="789" width="16" height="4" fill="#A3CB43"/>
<rect x="304" y="793" width="20" height="4" fill="#A3CB43"/>
<rect x="304" y="797" width="24" height="4" fill="#A3CB43"/>
<rect x="304" y="801" width="28" height="4" fill="#A3CB43"/>
<rect x="304" y="805" width="32" height="4" fill="#A3CB43"/>
<rect x="304" y="817" width="60" height="36" fill="#A3CB43"/>
<rect x="356" y="813" width="4" height="4" fill="#A3CB43"/>
<rect x="304" y="853" width="60" height="64" fill="#A3CB43"/>
<rect x="364" y="857" width="4" height="60" fill="#A3CB43"/>
<rect x="368" y="861" width="4" height="56" fill="#A3CB43"/>
<rect x="372" y="865" width="4" height="52" fill="#A3CB43"/>
<rect x="376" y="869" width="4" height="48" fill="#A3CB43"/>
<rect x="380" y="873" width="4" height="44" fill="#A3CB43"/>
<rect x="384" y="877" width="4" height="40" fill="#A3CB43"/>
<rect x="388" y="881" width="4" height="36" fill="#A3CB43"/>
<rect x="392" y="885" width="4" height="32" fill="#A3CB43"/>
<rect x="304" y="809" width="52" height="8" fill="#A3CB43"/>
<rect x="20" y="841" width="8" height="40" fill="#A3CB43"/>
<rect x="24" y="837" width="4" height="4" fill="#A3CB43"/>
<rect x="24" y="881" width="4" height="4" fill="#4E661C"/>
<rect x="24" y="885" width="4" height="4" fill="#4E661C"/>
<rect x="24" y="889" width="4" height="4" fill="#4E661C"/>
<rect x="20" y="881" width="4" height="12" fill="#6E9029"/>
<rect x="16" y="881" width="4" height="12" fill="#8FBB33"/>
<rect x="24" y="893" width="4" height="24" fill="#59492E"/>
<rect x="20" y="893" width="4" height="24" fill="#836C44"/>
<rect x="16" y="893" width="4" height="24" fill="#836C44"/>
<rect x="28" y="885" width="4" height="4" fill="#4E661C"/>
<rect x="28" y="889" width="4" height="4" fill="#4E661C"/>
<rect x="28" y="893" width="4" height="4" fill="#4E661C"/>
<rect x="28" y="897" width="4" height="20" fill="#59492E"/>
<rect x="32" y="889" width="4" height="4" fill="#4E661C"/>
<rect x="32" y="893" width="4" height="4" fill="#4E661C"/>
<rect x="32" y="897" width="4" height="4" fill="#4E661C"/>
<rect x="32" y="901" width="4" height="16" fill="#59492E"/>
<rect x="36" y="893" width="4" height="4" fill="#4E661C"/>
<rect x="36" y="897" width="4" height="4" fill="#4E661C"/>
<rect x="36" y="901" width="4" height="4" fill="#4E661C"/>
<rect x="36" y="905" width="4" height="12" fill="#59492E"/>
<rect x="40" y="897" width="4" height="4" fill="#4E661C"/>
<rect x="40" y="901" width="4" height="4" fill="#4E661C"/>
<rect x="40" y="905" width="4" height="4" fill="#4E661C"/>
<rect x="40" y="909" width="4" height="8" fill="#59492E"/>
<rect x="44" y="901" width="4" height="4" fill="#4E661C"/>
<rect x="44" y="905" width="4" height="4" fill="#4E661C"/>
<rect x="44" y="909" width="4" height="4" fill="#4E661C"/>
<rect x="44" y="913" width="4" height="4" fill="#59492E"/>
<rect x="48" y="905" width="4" height="4" fill="#4E661C"/>
<rect x="48" y="909" width="4" height="4" fill="#4E661C"/>
<rect x="48" y="913" width="4" height="4" fill="#4E661C"/>
<rect x="52" y="909" width="4" height="4" fill="#4E661C"/>
<rect x="52" y="913" width="4" height="4" fill="#4E661C"/>
<rect x="56" y="913" width="4" height="4" fill="#4E661C"/>
<rect x="28" y="833" width="16" height="52" fill="#A3CB43"/>
<rect x="44" y="825" width="4" height="76" fill="#A3CB43"/>
<rect x="44" y="821" width="4" height="4" fill="#A3CB43"/>
<rect x="48" y="817" width="4" height="88" fill="#A3CB43"/>
<rect x="32" y="885" width="12" height="4" fill="#A3CB43"/>
<rect x="36" y="889" width="8" height="4" fill="#A3CB43"/>
<rect x="40" y="893" width="4" height="4" fill="#A3CB43"/>
<rect x="40" y="821" width="4" height="12" fill="#C3D868"/>
<rect x="44" y="817" width="4" height="4" fill="#C3D868"/>
<rect x="28" y="829" width="12" height="4" fill="#C3D868"/>
<rect x="24" y="833" width="4" height="4" fill="#C3D868"/>
<rect x="20" y="837" width="4" height="4" fill="#C3D868"/>
<rect x="16" y="841" width="4" height="40" fill="#C3D868"/>
<rect x="48" y="813" width="4" height="4" fill="#C3D868"/>
<rect x="52" y="809" width="4" height="4" fill="#C3D868"/>
<rect x="56" y="805" width="4" height="4" fill="#C3D868"/>
<rect x="60" y="801" width="4" height="4" fill="#C3D868"/>
<rect x="64" y="797" width="4" height="4" fill="#C3D868"/>
<rect x="68" y="793" width="4" height="4" fill="#C3D868"/>
<rect x="72" y="789" width="4" height="4" fill="#C3D868"/>
<rect x="76" y="785" width="4" height="4" fill="#C3D868"/>
<rect x="80" y="781" width="4" height="4" fill="#C3D868"/>
<rect x="84" y="777" width="4" height="4" fill="#C3D868"/>
<rect x="88" y="773" width="4" height="4" fill="#C3D868"/>
<rect x="92" y="769" width="4" height="4" fill="#C3D868"/>
<rect x="96" y="765" width="4" height="4" fill="#C3D868"/>
<rect x="100" y="761" width="4" height="4" fill="#C3D868"/>
<rect x="104" y="757" width="4" height="4" fill="#C3D868"/>
<rect x="108" y="753" width="4" height="4" fill="#C3D868"/>
<rect x="280" y="753" width="8" height="4" fill="#C3D868"/>
<rect x="288" y="757" width="4" height="4" fill="#C3D868"/>
<rect x="116" y="749" width="164" height="4" fill="#C3D868"/>
<rect x="292" y="761" width="4" height="4" fill="#C3D868"/>
<rect x="296" y="765" width="4" height="4" fill="#C3D868"/>
<rect x="300" y="769" width="4" height="4" fill="#C3D868"/>
<rect x="304" y="773" width="4" height="4" fill="#C3D868"/>
<rect x="308" y="777" width="4" height="4" fill="#C3D868"/>
<rect x="312" y="781" width="4" height="4" fill="#C3D868"/>
<rect x="316" y="785" width="4" height="4" fill="#C3D868"/>
<rect x="320" y="789" width="4" height="4" fill="#C3D868"/>
<rect x="324" y="793" width="4" height="4" fill="#C3D868"/>
<rect x="328" y="797" width="4" height="4" fill="#C3D868"/>
<rect x="332" y="801" width="4" height="4" fill="#C3D868"/>
<rect x="336" y="805" width="20" height="4" fill="#C3D868"/>
<rect x="356" y="809" width="4" height="4" fill="#C3D868"/>
<rect x="360" y="813" width="4" height="4" fill="#C3D868"/>
<rect x="364" y="817" width="4" height="40" fill="#C3D868"/>
<rect x="368" y="857" width="4" height="4" fill="#C3D868"/>
<rect x="372" y="861" width="4" height="4" fill="#C3D868"/>
<rect x="376" y="865" width="4" height="4" fill="#C3D868"/>
<rect x="380" y="869" width="4" height="4" fill="#C3D868"/>
<rect x="384" y="873" width="4" height="4" fill="#C3D868"/>
<rect x="388" y="877" width="4" height="4" fill="#C3D868"/>
<rect x="392" y="881" width="4" height="4" fill="#C3D868"/>
<rect x="112" y="749" width="4" height="4" fill="#C3D868"/>
<rect x="52" y="813" width="4" height="96" fill="#A3CB43"/>
<rect x="56" y="809" width="4" height="104" fill="#A3CB43"/>
<rect x="60" y="805" width="48" height="112" fill="#A3CB43"/>
<rect x="64" y="801" width="44" height="4" fill="#A3CB43"/>
<rect x="68" y="797" width="40" height="4" fill="#A3CB43"/>
<rect x="72" y="793" width="36" height="4" fill="#A3CB43"/>
<rect x="76" y="789" width="32" height="4" fill="#A3CB43"/>
<rect x="80" y="785" width="28" height="4" fill="#A3CB43"/>
<rect x="84" y="781" width="24" height="4" fill="#A3CB43"/>
<rect x="88" y="777" width="20" height="4" fill="#A3CB43"/>
<rect x="92" y="773" width="16" height="4" fill="#A3CB43"/>
<rect x="96" y="769" width="12" height="4" fill="#A3CB43"/>
<rect x="100" y="765" width="8" height="4" fill="#A3CB43"/>
<rect x="104" y="761" width="4" height="4" fill="#A3CB43"/>
<rect x="108" y="757" width="172" height="160" fill="#A3CB43"/>
<rect x="112" y="753" width="168" height="4" fill="#A3CB43"/>
<rect x="280" y="757" width="8" height="160" fill="#A3CB43"/>
<rect x="288" y="761" width="4" height="156" fill="#A3CB43"/>
<rect x="292" y="765" width="4" height="152" fill="#A3CB43"/>
<rect x="296" y="769" width="4" height="148" fill="#A3CB43"/>
<rect x="300" y="773" width="4" height="144" fill="#A3CB43"/>
<rect x="304" y="777" width="4" height="4" fill="#A3CB43"/>
<rect x="304" y="781" width="8" height="4" fill="#A3CB43"/>
<rect x="304" y="785" width="12" height="4" fill="#A3CB43"/>
<rect x="304" y="789" width="16" height="4" fill="#A3CB43"/>
<rect x="304" y="793" width="20" height="4" fill="#A3CB43"/>
<rect x="304" y="797" width="24" height="4" fill="#A3CB43"/>
<rect x="304" y="801" width="28" height="4" fill="#A3CB43"/>
<rect x="304" y="805" width="32" height="4" fill="#A3CB43"/>
<rect x="304" y="817" width="60" height="36" fill="#A3CB43"/>
<rect x="356" y="813" width="4" height="4" fill="#A3CB43"/>
<rect x="304" y="853" width="60" height="64" fill="#A3CB43"/>
<rect x="364" y="857" width="4" height="60" fill="#A3CB43"/>
<rect x="368" y="861" width="4" height="56" fill="#A3CB43"/>
<rect x="372" y="865" width="4" height="52" fill="#A3CB43"/>
<rect x="376" y="869" width="4" height="48" fill="#A3CB43"/>
<rect x="380" y="873" width="4" height="44" fill="#A3CB43"/>
<rect x="384" y="877" width="4" height="40" fill="#A3CB43"/>
<rect x="388" y="881" width="4" height="36" fill="#A3CB43"/>
<rect x="392" y="885" width="4" height="32" fill="#A3CB43"/>
<rect x="304" y="809" width="52" height="8" fill="#A3CB43"/>
</g>
<defs>
<linearGradient id="paint0_linear_143_2368" x1="206" y1="917" x2="206" y2="0" gradientUnits="userSpaceOnUse">
<stop stop-color="#00DAEB"/>
<stop offset="1" stop-color="#004185"/>
</linearGradient>
<clipPath id="clip0_143_2368">
<rect width="412" height="917" fill="white"/>
</clipPath>
</defs>
</svg>
