<svg width="201" height="85" viewBox="0 0 201 85" fill="none" xmlns="http://www.w3.org/2000/svg">
<g clip-path="url(#clip0_67_6646)">
<g opacity="0.5">
<path d="M50.0493 33.4634H37.1787V29.1733H32.8886V24.8831H28.5984V20.5929H11.4376V24.8831H7.14745V29.1733H2.85726V59.2046H7.14745V63.4947H11.4376V67.7849H28.5984V63.4947H32.8886V59.2046H37.1787V54.9144H50.0493V72.0751H58.6297V16.3027H50.0493V33.4634ZM28.6012 59.2017H24.311V63.4919H15.7307V59.2017H11.4405V29.1704H15.7307V24.8802H24.311V29.1704H28.6012V59.2017ZM50.0493 50.6242H37.1787V37.7536H50.0493V50.6242Z" fill="black"/>
<path d="M80.0835 46.334H97.2442V42.0438H105.825V29.1733H97.2442V24.8831H105.825V20.5929H92.954V16.3027H84.3736V20.5929H71.5031V24.8831H80.0835V29.1733H71.5031V42.0438H80.0835V46.334ZM80.0835 33.4634H84.3736V29.1733H92.954V33.4634H97.2442V37.7536H92.954V42.0438H84.3736V37.7536H80.0835V33.4634Z" fill="black"/>
<path d="M122.982 29.1733H118.692V16.3027H110.112V46.334H118.692V33.4634H122.982V46.334H131.563V16.3027H122.982V29.1733Z" fill="black"/>
<path d="M122.982 50.6242H84.3736V54.9144H75.7933V67.7849H84.3736V72.0751H122.982V67.7849H131.563V54.9144H122.982V50.6242ZM122.982 63.4919H118.692V67.7821H88.6609V63.4919H84.3708V59.2017H88.6609V54.9115H118.692V59.2017H122.982V63.4919Z" fill="black"/>
<path d="M148.726 24.311H153.017V20.0209H161.597V24.311H165.887V28.6012H174.468V24.311H170.177V20.0209H165.887V15.7307H161.597V11.4405H174.468V7.15031H161.597V2.86012H153.017V7.15031H140.146V11.4405H153.017V15.7307H148.726V20.0209H144.436V24.311H140.146V28.6012H148.726V24.311Z" fill="black"/>
<path d="M200.206 2.86012H191.625V50.607H200.206V2.86012Z" fill="black"/>
<path d="M161.597 50.6213V37.1816H178.758V41.4689H170.177V45.7591H178.758V50.6213H187.335V2.86012H178.758V32.8914H140.146V37.1816H153.017V50.6213H161.597Z" fill="black"/>
<path d="M153.017 59.2589H191.625V67.8393H153.017V72.1294H191.625V80.7098H187.335V85H195.916V80.7098H200.206V54.9687H153.017V59.2589Z" fill="black"/>
</g>
<path d="M47.1892 30.6033H34.3186V26.3131H30.0284V22.023H25.7382V17.7328H8.58037V22.023H4.29018V26.3131H0V56.3444H4.29018V60.6346H8.58037V64.9248H25.7411V60.6346H30.0313V56.3444H34.3215V52.0542H47.192V69.215H55.7724V13.4426H47.192V30.6033H47.1892ZM25.7411 56.3416H21.4509V60.6318H12.8706V56.3416H8.58037V26.3103H12.8706V22.0201H21.4509V26.3103H25.7411V56.3416ZM47.1892 47.7641H34.3186V34.8935H47.1892V47.7641Z" fill="white"/>
<path d="M77.2233 43.4739H94.3841V39.1837H102.964V26.3131H94.3841V22.0229H102.964V17.7328H90.0939V13.4426H81.5135V17.7328H68.6429V22.0229H77.2233V26.3131H68.6429V39.1837H77.2233V43.4739ZM77.2233 30.6033H81.5135V26.3131H90.0939V30.6033H94.3841V34.8935H90.0939V39.1837H81.5135V34.8935H77.2233V30.6033Z" fill="white"/>
<path d="M120.122 26.3131H115.832V13.4426H107.252V43.4739H115.832V30.6033H120.122V43.4739H128.703V13.4426H120.122V26.3131Z" fill="white"/>
<path d="M120.122 47.7641H81.5135V52.0542H72.9331V64.9248H81.5135V69.215H120.122V64.9248H128.703V52.0542H120.122V47.7641ZM120.122 60.6317H115.832V64.9219H85.8008V60.6317H81.5106V56.3416H85.8008V52.0514H115.832V56.3416H120.122V60.6317Z" fill="white"/>
<path d="M145.866 21.4509H150.156V17.1607H158.737V21.4509H163.027V25.7411H171.607V21.4509H167.317V17.1607H163.027V12.8706H158.737V8.58037H171.607V4.29018H158.737V0H150.156V4.29018H137.286V8.58037H150.156V12.8706H145.866V17.1607H141.576V21.4509H137.286V25.7411H145.866V21.4509Z" fill="white"/>
<path d="M197.346 0H188.765V47.7469H197.346V0Z" fill="white"/>
<path d="M158.737 47.7612V34.3215H175.898V38.6088H167.317V42.899H175.898V47.7612H184.475V0H175.898V30.0313H137.286V34.3215H150.156V47.7612H158.737Z" fill="white"/>
<path d="M150.156 56.3988H188.765V64.9791H150.156V69.2693H188.765V77.8497H184.475V82.1399H193.055V77.8497H197.346V52.1086H150.156V56.3988Z" fill="white"/>
</g>
<defs>
<clipPath id="clip0_67_6646">
<rect width="200.206" height="85" fill="white"/>
</clipPath>
</defs>
</svg>
